<?xml version="1.0" standalone="no"?>
<!DOCTYPE svg PUBLIC "-//W3C//DTD SVG 20010904//EN"
 "http://www.w3.org/TR/2001/REC-SVG-20010904/DTD/svg10.dtd">
<svg version="1.0" xmlns="http://www.w3.org/2000/svg"
 width="82.000000pt" height="82.000000pt" viewBox="0 0 82.000000 82.000000"
 preserveAspectRatio="xMidYMid meet">
<metadata>
Created by potrace 1.11, written by Peter Selinger 2001-2013
</metadata>
<g transform="translate(0.000000,82.000000) scale(0.100000,-0.100000)"
fill="#000000" stroke="none">
<path d="M13 805 c-20 -22 -18 -771 1 -791 22 -21 770 -21 792 0 21 22 21 770
0 792 -21 21 -775 20 -793 -1z m484 -207 c-2 -7 -38 -91 -78 -187 -65 -155
-89 -195 -105 -178 -3 2 30 88 73 191 61 145 82 185 97 186 10 0 16 -5 13 -12z
m-283 -77 c3 -5 -24 -33 -60 -62 l-65 -53 43 -36 c96 -79 95 -78 76 -85 -12
-5 -38 11 -86 52 -39 32 -71 62 -72 66 -2 11 131 126 147 126 6 1 14 -3 17 -8z
m480 -43 c33 -28 67 -57 74 -63 10 -9 -5 -26 -67 -78 -64 -53 -81 -64 -90 -53
-9 11 2 25 54 66 36 28 65 53 65 54 0 1 -29 26 -65 55 -59 48 -73 71 -43 71 6
0 38 -23 72 -52z"/>
</g>
</svg>
